<svg width="32" height="32" viewBox="0 0 32 32" fill="none" xmlns="http://www.w3.org/2000/svg">
<g clip-path="url(#clip0)">
<path d="M31.4245 13.5478C32.0397 12.43 32.1686 11.0952 31.7776 9.87978C31.3831 8.65347 30.4877 7.63691 29.3209 7.09091L18.0665 1.82416C16.8299 1.24547 15.4082 1.23822 14.1657 1.80435L2.72308 7.01809C1.5102 7.57072 0.591517 8.61872 0.202455 9.89353C-0.180983 11.1499 -0.0146702 12.5108 0.658079 13.6371L3.1702 19.0483V22.2524C1.82027 23.077 1.0842 24.1096 1.0842 25.1996C1.0842 28.755 8.58807 30.6152 16.0005 30.6152C19.8288 30.6152 23.4407 30.1335 26.171 29.2589C30.0935 28.0024 30.9168 26.3578 30.9168 25.1996C30.9168 24.1301 30.1803 23.1033 28.8296 22.2695V19.0512L31.4245 13.5478ZM2.3142 12.7513L2.28564 12.7049C1.86927 12.027 1.76364 11.2018 1.99589 10.4409C2.22814 9.67997 2.77658 9.0544 3.50051 8.72447L14.9431 3.51078C15.6848 3.17285 16.5335 3.17722 17.2716 3.52266L28.5259 8.78941C29.2326 9.12015 29.7534 9.71128 29.9924 10.4542C30.2314 11.197 30.153 11.981 29.7716 12.6618L27.3557 17.7807C26.0056 17.5244 24.6319 17.3141 23.2529 17.15C23.3647 16.6327 23.4237 16.0995 23.4237 15.5574V11.3477L19.612 7.53603H12.3887L8.57701 11.3477V15.5574C8.57701 16.0994 8.63601 16.6326 8.74776 17.1499C7.36982 17.3138 5.99726 17.5238 4.64858 17.7797L2.3142 12.7513ZM5.04532 19.6132C6.47376 19.3435 7.92957 19.1255 9.38995 18.9626C9.98095 20.1292 10.8736 21.1368 11.9973 21.8691L5.04532 21.8693V19.6132ZM18.6285 20.5101L16.0004 21.773L13.3724 20.5101C11.5706 19.5133 10.4523 17.6178 10.4523 15.5573V12.1243L13.1655 9.41115H18.8354L21.5487 12.1243V15.5573C21.5486 17.6177 20.4302 19.5133 18.6285 20.5101ZM22.6109 18.9627C24.0706 19.1255 25.526 19.3435 26.9544 19.6132V21.8685L20.004 21.8687C21.1274 21.1365 22.0199 20.129 22.6109 18.9627ZM25.5988 27.473C23.0486 28.29 19.6397 28.74 16.0004 28.74C12.3611 28.74 8.95232 28.29 6.40207 27.473C4.02389 26.7112 2.95939 25.7822 2.95939 25.1995C2.95939 24.8594 3.32445 24.3086 4.3307 23.7446L27.6393 23.7436C28.6058 24.291 29.0416 24.8613 29.0416 25.1995C29.0416 25.7822 27.977 26.7112 25.5988 27.473Z" fill="white"/>
<path d="M17.3719 16.8864L16.9368 17.1076L16.9381 14.2502H18.2886V12.375H16.939L16.9396 11.034L15.0644 11.0331L15.0638 12.375H13.7132V14.2502H15.063L15.0617 17.1078L14.6275 16.8868C14.1255 16.6313 13.8137 16.1227 13.8137 15.5589L11.9385 15.5595C11.9385 16.832 12.643 17.981 13.7772 18.5582L15.9983 19.6883L18.2217 18.5581C19.3566 17.9813 20.0615 16.832 20.0615 15.5589H18.1863C18.1863 16.1224 17.8742 16.631 17.3719 16.8864Z" fill="white"/>
</g>
<defs>
<clipPath id="clip0">
<rect width="32" height="32" fill="white"/>
</clipPath>
</defs>
</svg>
