<svg width="39" height="39" viewBox="0 0 39 39" fill="none" xmlns="http://www.w3.org/2000/svg">
<g clip-path="url(#clip0)">
<path d="M20.1822 6.47475C20.4887 6.16826 20.4887 5.67134 20.1822 5.36485C19.8757 5.05835 19.3788 5.05835 19.0723 5.36485C18.7658 5.67134 18.7658 6.16826 19.0723 6.47475C19.3788 6.78125 19.8757 6.78125 20.1822 6.47475Z" fill="white"/>
<path d="M23.5518 5.91946C23.5518 3.7557 21.7914 1.99528 19.6276 1.9952C17.4638 1.9952 15.7033 3.75562 15.7033 5.91946C15.7033 7.15833 16.2948 8.32307 17.273 9.05885L17.273 12.704L14.9185 12.704C14.7103 12.704 14.5107 12.7867 14.3635 12.9338C14.2163 13.081 14.1336 13.2807 14.1336 13.4888L14.1336 16.6281C14.1336 16.8363 14.2163 17.0359 14.3635 17.1831C14.5107 17.3303 14.7103 17.413 14.9185 17.413L17.273 17.413L17.273 26.7754C14.6141 26.3934 12.5639 24.1002 12.5639 21.3373L12.5639 20.5525L13.3487 20.5525C13.6381 20.5525 13.9041 20.3933 14.0407 20.138C14.1773 19.8828 14.1623 19.5731 14.0017 19.3323L10.8623 14.6232C10.7167 14.4048 10.4717 14.2737 10.2093 14.2737C9.94692 14.2737 9.70198 14.4047 9.5563 14.6232L6.41698 19.3323C6.25639 19.5732 6.24145 19.8828 6.37803 20.138C6.51465 20.3932 6.78057 20.5525 7.06997 20.5525L7.85481 20.5525L7.85481 22.9071C7.85481 26.8296 10.4541 30.0738 13.9212 31.1521C15.7064 31.7074 17.1504 32.5278 18.213 33.5903L19.0725 34.4499C19.379 34.7564 19.876 34.7564 20.1825 34.4499L21.042 33.5903C22.1046 32.5278 23.5486 31.7074 25.3338 31.1521C28.7992 30.0743 31.4001 26.8315 31.4002 22.9071L31.4002 20.5525L32.185 20.5525C32.4744 20.5526 32.7403 20.3933 32.877 20.138C33.0136 19.8828 32.9986 19.5732 32.838 19.3323L29.6986 14.6232C29.553 14.4049 29.308 14.2737 29.0456 14.2738C28.7832 14.2738 28.538 14.405 28.3926 14.6233L25.2532 19.3323C25.0926 19.5732 25.0777 19.8828 25.2143 20.138C25.3509 20.3932 25.6168 20.5525 25.9063 20.5525H26.6911L26.6911 21.3373C26.6911 24.1003 24.6408 26.3934 21.982 26.7754L21.9819 17.4131L24.3365 17.4131C24.7699 17.4131 25.1213 17.0617 25.1213 16.6283L25.1213 13.4889C25.1213 13.2807 25.0386 13.0811 24.8914 12.9339C24.7442 12.7867 24.5446 12.704 24.3364 12.704H21.9819L21.9819 9.05881C22.9603 8.32314 23.5518 7.1583 23.5518 5.91946ZM20.4124 8.63885L20.4124 13.4889C20.4124 13.697 20.4951 13.8967 20.6423 14.0439C20.7895 14.1911 20.9891 14.2738 21.1973 14.2738L23.5518 14.2738L23.5518 15.8435L21.1972 15.8435C20.7638 15.8434 20.4124 16.1949 20.4124 16.6283V27.6162C20.4124 27.8243 20.4951 28.024 20.6423 28.1712C20.7895 28.3184 20.9891 28.4011 21.1973 28.4011C25.0923 28.401 28.2609 25.2322 28.2609 21.3374L28.2609 19.7677C28.2609 19.3342 27.9095 18.9829 27.4761 18.9829H27.3729L29.0458 16.4735L30.7187 18.9829L30.6155 18.9829C30.4074 18.9829 30.2077 19.0656 30.0606 19.2128C29.9134 19.36 29.8307 19.5596 29.8307 19.7677L29.8307 22.9071C29.8307 26.019 27.8362 28.7301 24.8678 29.6534C22.8371 30.285 21.1766 31.2361 19.9323 32.4804L19.6277 32.7851L19.3231 32.4805C18.0788 31.2362 16.4182 30.285 14.3875 29.6533C11.419 28.73 9.42463 26.019 9.42463 22.9071L9.42463 19.7677C9.42463 19.3342 9.07326 18.9828 8.6398 18.9829H8.53658L10.2095 16.4735L11.8824 18.9828L11.7792 18.9829C11.3458 18.9828 10.9944 19.3342 10.9944 19.7677L10.9943 21.3374C10.9943 25.2323 14.1631 28.401 18.058 28.4011C18.2661 28.4011 18.4658 28.3184 18.6129 28.1712C18.7601 28.0241 18.8428 27.8244 18.8428 27.6163L18.8429 16.6284C18.8429 16.4203 18.7602 16.2206 18.613 16.0734C18.4658 15.9262 18.2662 15.8435 18.058 15.8435L15.7034 15.8435L15.7035 14.2738L18.058 14.2738C18.2661 14.2738 18.4658 14.1912 18.6129 14.044C18.7601 13.8968 18.8429 13.6972 18.8428 13.4891L18.8428 8.63904C18.8428 8.35892 18.6935 8.09992 18.451 7.95967C17.7244 7.53938 17.2732 6.75772 17.2731 5.91969C17.2731 4.62133 18.3293 3.56514 19.6277 3.5651C20.926 3.56514 21.9823 4.62137 21.9823 5.91965C21.9822 6.75776 21.5309 7.53945 20.8044 7.95967C20.5617 8.09981 20.4124 8.35877 20.4124 8.63885Z" fill="white"/>
</g>
<defs>
<clipPath id="clip0">
<rect width="26.7868" height="26.7868" fill="white" transform="translate(0.686279 19.3137) rotate(-45)"/>
</clipPath>
</defs>
</svg>
