<svg width="35" height="35" viewBox="0 0 35 35" fill="none" xmlns="http://www.w3.org/2000/svg">
<path d="M12.0312 26.25H22.9688V28.4375H12.0312V26.25Z" fill="white"/>
<path d="M14.2188 30.625H20.7812V32.8125H14.2188V30.625Z" fill="white"/>
<path d="M17.5 2.1875C14.5992 2.1875 11.8172 3.33984 9.76602 5.39102C7.71484 7.4422 6.5625 10.2242 6.5625 13.125C6.48854 14.7146 6.79303 16.299 7.45095 17.748C8.10886 19.1969 9.10139 20.4689 10.3469 21.4594C11.4406 22.4766 12.0313 23.0562 12.0313 24.0625H14.2188C14.2188 22.05 13.0047 20.9234 11.8234 19.8406C10.8012 19.0578 9.98645 18.0362 9.45064 16.8655C8.91482 15.6947 8.67425 14.4103 8.75 13.125C8.75 10.8044 9.67187 8.57876 11.3128 6.93782C12.9538 5.29687 15.1794 4.375 17.5 4.375C19.8206 4.375 22.0462 5.29687 23.6872 6.93782C25.3281 8.57876 26.25 10.8044 26.25 13.125C26.3245 14.4113 26.0822 15.6962 25.5445 16.8671C25.0067 18.0379 24.1899 19.059 23.1656 19.8406C21.9953 20.9344 20.7812 22.0281 20.7812 24.0625H22.9688C22.9688 23.0562 23.5484 22.4766 24.6531 21.4484C25.8977 20.4597 26.8898 19.1895 27.5477 17.7425C28.2057 16.2955 28.5106 14.7129 28.4375 13.125C28.4375 11.6887 28.1546 10.2664 27.6049 8.9394C27.0553 7.6124 26.2496 6.40666 25.234 5.39102C24.2183 4.37538 23.0126 3.56973 21.6856 3.02007C20.3586 2.47041 18.9363 2.1875 17.5 2.1875Z" fill="white"/>
</svg>
