<svg width="32" height="32" viewBox="0 0 32 32" fill="none" xmlns="http://www.w3.org/2000/svg">
<g clip-path="url(#clip0)">
<path d="M27.2344 6.58988H22.6016V4.14456C22.6016 2.37831 21.1646 0.941376 19.3984 0.941376H12.6016C10.8354 0.941376 9.39844 2.37831 9.39844 4.14456V6.58981H4.76556C2.13781 6.58988 0 8.72769 0 11.3554V26.2931C0 28.9208 2.13781 31.0586 4.76556 31.0586H27.2344C29.8622 31.0586 32 28.9208 32 26.2931V11.3554C32 8.72769 29.8622 6.58988 27.2344 6.58988ZM11.2734 4.14456C11.2734 3.41219 11.8693 2.81638 12.6016 2.81638H19.3984C20.1307 2.81638 20.7266 3.41219 20.7266 4.14456V6.58981H11.2734V4.14456ZM1.875 26.293V11.3554C1.875 10.0897 2.69313 9.01213 3.82806 8.62181V29.0268C2.69313 28.6363 1.875 27.5588 1.875 26.293ZM5.70306 29.1836V8.46488H26.2969V29.1836H5.70306ZM30.125 26.293C30.125 27.5588 29.3069 28.6363 28.1719 29.0266V8.62175C29.3069 9.01213 30.125 10.0897 30.125 11.3554V26.293Z" fill="#356ABC"/>
<path d="M21.6484 16.0039H18.8203V13.1758C18.8203 12.658 18.4006 12.2383 17.8828 12.2383H14.1172C13.5994 12.2383 13.1797 12.658 13.1797 13.1758V16.0039H10.3516C9.83381 16.0039 9.41406 16.4236 9.41406 16.9414V20.707C9.41406 21.2248 9.83381 21.6445 10.3516 21.6445H13.1797V24.4726C13.1797 24.9904 13.5994 25.4101 14.1172 25.4101H17.8828C18.4006 25.4101 18.8203 24.9904 18.8203 24.4726V21.6445H21.6484C22.1662 21.6445 22.5859 21.2248 22.5859 20.707V16.9414C22.5859 16.4236 22.1662 16.0039 21.6484 16.0039ZM20.7109 19.7695H17.8828C17.3651 19.7695 16.9453 20.1893 16.9453 20.707V23.5351H15.0547V20.707C15.0547 20.1893 14.6349 19.7695 14.1172 19.7695H11.2891V17.8789H14.1172C14.6349 17.8789 15.0547 17.4591 15.0547 16.9414V14.1133H16.9453V16.9414C16.9453 17.4591 17.3651 17.8789 17.8828 17.8789H20.7109V19.7695Z" fill="#356ABC"/>
</g>
<defs>
<clipPath id="clip0">
<rect width="32" height="32" fill="white"/>
</clipPath>
</defs>
</svg>
