<svg width="32" height="32" viewBox="0 0 32 32" fill="none" xmlns="http://www.w3.org/2000/svg">
<g clip-path="url(#clip0)">
<path d="M30.999 15.7868C29.9291 14.9049 28.2379 14.8293 27.128 16.0205L24.3726 18.9784C24.0163 17.8335 22.947 16.9998 21.6865 16.9998H16.7693C16.3962 16.9998 16.2712 16.8573 15.6231 16.358C13.152 14.2037 9.44038 14.2106 6.97675 16.3786L5.16938 17.9698C4.35694 17.5398 3.40825 17.5291 2.59138 17.9373L0.518375 18.9734C0.0552505 19.2053 -0.132187 19.7684 0.0990005 20.2315L5.72369 31.4808C5.95556 31.944 6.51863 32.1314 6.98175 31.9002L9.05475 30.8634C10.0766 30.3528 10.6452 29.3103 10.6084 28.2492H21.6864C23.7407 28.2492 25.7037 27.268 26.9361 25.6244L31.4365 19.6235C32.3096 18.4604 32.1714 16.7548 30.999 15.7868ZM8.216 29.1866L6.98169 29.804L2.19513 20.2315L3.43006 19.6141C3.89319 19.3828 4.45563 19.5697 4.6875 20.0334L8.63538 27.9292C8.86662 28.3923 8.67912 28.9547 8.216 29.1866ZM29.9366 18.4985L25.4363 24.4994C24.5557 25.6737 23.1539 26.3743 21.6865 26.3743H9.95406L6.44113 19.3478L8.21537 17.7861C9.98088 16.233 12.6432 16.233 14.4087 17.7861C15.4487 18.7016 16.0955 18.8748 16.7693 18.8748H21.6864C22.2033 18.8748 22.6239 19.2954 22.6239 19.8122C22.6239 20.329 22.2033 20.7496 21.6864 20.7496H16.8986C16.3811 20.7496 15.9612 21.1696 15.9612 21.6871C15.9612 22.2045 16.3812 22.6245 16.8986 22.6245H22.3146C23.0926 22.6245 23.8426 22.2983 24.3726 21.7289L28.4998 17.2986C28.8773 16.8936 29.456 16.9273 29.811 17.2379C30.1822 17.5629 30.2222 18.1185 29.9366 18.4985Z" fill="#356ABC"/>
<path d="M19.7117 6.39794C20.3535 5.72487 20.7491 4.81494 20.7491 3.81306C20.7491 1.74944 19.0817 0.000812531 16.9994 0.000812531C14.9326 0.000812531 13.1871 1.74631 13.1871 3.81306C13.1871 4.78425 13.5678 5.70106 14.2589 6.40544C12.5447 7.36662 11.3123 9.2115 11.3123 11.3751V12.3126C11.3123 12.83 11.7323 13.25 12.2497 13.25H21.6866C22.2041 13.25 22.6241 12.83 22.6241 12.3126V11.3751C22.624 9.254 21.4573 7.38037 19.7117 6.39794ZM16.9994 1.87575C18.0156 1.87575 18.8742 2.76319 18.8742 3.81312C18.8742 4.84681 18.0331 5.688 16.9994 5.688C15.9494 5.688 15.062 4.82931 15.062 3.81312C15.062 2.78131 15.9676 1.87575 16.9994 1.87575ZM13.1871 11.3751C13.1871 9.30837 14.9326 7.56287 16.9994 7.56287C19.0667 7.56287 20.7491 9.27275 20.7491 11.3751H13.1871Z" fill="#356ABC"/>
</g>
<defs>
<clipPath id="clip0">
<rect width="32" height="32" fill="white"/>
</clipPath>
</defs>
</svg>
