<svg width="32" height="32" viewBox="0 0 32 32" fill="none" xmlns="http://www.w3.org/2000/svg">
<g clip-path="url(#clip0)">
<path d="M27.2344 6.58991H22.6016V4.14459C22.6016 2.37834 21.1646 0.941406 19.3984 0.941406H12.6016C10.8354 0.941406 9.39844 2.37834 9.39844 4.14459V6.58984H4.76556C2.13781 6.58991 0 8.72772 0 11.3555V26.2931C0 28.9208 2.13781 31.0587 4.76556 31.0587H27.2344C29.8622 31.0587 32 28.9208 32 26.2931V11.3555C32 8.72772 29.8622 6.58991 27.2344 6.58991ZM11.2734 4.14459C11.2734 3.41222 11.8693 2.81641 12.6016 2.81641H19.3984C20.1307 2.81641 20.7266 3.41222 20.7266 4.14459V6.58984H11.2734V4.14459ZM1.875 26.293V11.3555C1.875 10.0897 2.69313 9.01216 3.82806 8.62185V29.0268C2.69313 28.6363 1.875 27.5588 1.875 26.293ZM5.70306 29.1837V8.46491H26.2969V29.1837H5.70306ZM30.125 26.293C30.125 27.5588 29.3069 28.6363 28.1719 29.0267V8.62178C29.3069 9.01216 30.125 10.0897 30.125 11.3555V26.293Z" fill="white"/>
<path d="M21.6484 16.0039H18.8203V13.1758C18.8203 12.658 18.4006 12.2383 17.8828 12.2383H14.1172C13.5994 12.2383 13.1797 12.658 13.1797 13.1758V16.0039H10.3516C9.83381 16.0039 9.41406 16.4237 9.41406 16.9414V20.707C9.41406 21.2248 9.83381 21.6445 10.3516 21.6445H13.1797V24.4727C13.1797 24.9904 13.5994 25.4102 14.1172 25.4102H17.8828C18.4006 25.4102 18.8203 24.9904 18.8203 24.4727V21.6445H21.6484C22.1662 21.6445 22.5859 21.2248 22.5859 20.707V16.9414C22.5859 16.4237 22.1662 16.0039 21.6484 16.0039ZM20.7109 19.7695H17.8828C17.3651 19.7695 16.9453 20.1893 16.9453 20.707V23.5352H15.0547V20.707C15.0547 20.1893 14.6349 19.7695 14.1172 19.7695H11.2891V17.8789H14.1172C14.6349 17.8789 15.0547 17.4592 15.0547 16.9414V14.1133H16.9453V16.9414C16.9453 17.4592 17.3651 17.8789 17.8828 17.8789H20.7109V19.7695Z" fill="white"/>
</g>
<defs>
<clipPath id="clip0">
<rect width="32" height="32" fill="white"/>
</clipPath>
</defs>
</svg>
