<svg width="22" height="32" viewBox="0 0 22 32" fill="none" xmlns="http://www.w3.org/2000/svg">
<path fill-rule="evenodd" clip-rule="evenodd" d="M2.69134 4.64967L0 9.29934L2.05871 12.8232C4.1017 16.3195 4.10909 16.3476 3.01713 16.4924C2.19965 16.6012 1.91684 16.9266 1.91684 17.7601C1.91684 18.8555 2.00556 18.8822 5.61373 18.8822H9.31062V21.1508C9.31062 23.2783 9.3938 23.4374 10.6489 23.7121C13.593 24.3571 14.3633 27.4075 12.0209 29.1446C10.9345 29.9499 10.66 29.9794 9.47929 29.4184C8.751 29.0727 7.95016 28.324 7.69924 27.7546C7.41088 27.1005 6.83925 26.7192 6.14701 26.7192C5.18304 26.7192 5.08969 26.8714 5.36881 27.987C6.07584 30.8148 9.22975 32.6537 11.8767 31.782C15.5616 30.5691 16.9613 26.3463 14.6046 23.5521C13.9581 22.7855 13.0223 22.0299 12.5251 21.8723C11.8984 21.674 11.6212 21.1711 11.6212 20.2343V18.8822H15.5491C19.4309 18.8822 19.4771 18.8688 19.4771 17.7297C19.4771 16.81 19.2456 16.5772 18.3296 16.5772C17.1901 16.5772 17.1961 16.5537 19.2705 13.0537C20.4189 11.1157 21.2992 9.39108 21.2266 9.22051C21.1541 9.04994 19.9507 6.90581 18.5528 4.45559L16.0112 0.000460749L10.697 0H5.38267L2.69134 4.64967ZM14.9539 3.09286C15.3407 3.53635 16.3338 5.14433 17.1605 6.66563L18.6638 9.43165L16.7201 12.7739L14.776 16.1162H10.6775H6.57862L4.70984 12.9242C3.6821 11.1682 2.84106 9.60591 2.84106 9.45147C2.84106 9.29749 3.72508 7.62452 4.80503 5.73349L6.76901 2.29579L10.5098 2.29118C13.5006 2.28703 14.3915 2.44792 14.9539 3.09286Z" fill="#356ABC"/>
</svg>
