<svg width="26" height="32" viewBox="0 0 26 32" fill="none" xmlns="http://www.w3.org/2000/svg">
<path fill-rule="evenodd" clip-rule="evenodd" d="M5.44176 0.275539C4.29674 0.685949 3.60459 1.89046 3.60459 3.47361C3.60459 4.65048 3.33636 5.10143 2.35485 5.5731C0.0482797 6.68273 -0.0996124 7.55053 0.0354198 19.1747C0.199387 33.2636 -1.09169 31.9688 12.7914 31.9688C26.3763 31.9688 25.3636 32.727 25.5717 22.3995C25.6589 18.0591 25.5207 14.2502 25.2419 13.3138C24.9443 12.3142 23.5301 10.4768 21.5225 8.48006L18.2831 5.25896L14.6184 5.09222L10.9533 4.92501V3.15762C10.9533 1.85315 10.686 1.20184 9.93227 0.673052C8.93376 -0.0289294 6.81413 -0.2164 5.44176 0.275539ZM8.65681 3.64081C8.65681 4.86928 8.50387 5.02266 7.27893 5.02266C6.054 5.02266 5.90105 4.86928 5.90105 3.64081C5.90105 2.41234 6.054 2.25896 7.27893 2.25896C8.50387 2.25896 8.65681 2.41234 8.65681 3.64081ZM16.8033 13.8836L23.3542 20.4414V24.6159C23.3542 27.2488 23.1507 28.9946 22.803 29.3433C22.0236 30.1249 3.55728 30.1249 2.77786 29.3433C1.9966 28.5598 1.9966 8.662 2.77786 7.87849C3.10901 7.54639 4.71056 7.32575 6.7907 7.32575H10.2529L16.8033 13.8836ZM20.2981 10.4787C23.1585 13.3695 23.4061 13.773 23.2715 15.329L23.1245 17.0264L18.3102 12.1761L13.4959 7.32575H15.3372C17.0026 7.32575 17.4757 7.62653 20.2981 10.4787ZM10.5192 18.2253C8.30315 21.329 8.10244 23.1738 9.783 24.9923C12.1897 27.5966 16.9241 25.8168 16.9241 22.3078C16.9241 20.8453 13.6939 15.6169 12.7904 15.6169C12.5659 15.6169 11.5435 16.7905 10.5192 18.2253ZM13.8395 20.1788C14.883 21.9508 14.8357 23.3032 13.709 23.908C12.4974 24.5584 10.9533 23.7505 10.9533 22.4658C10.9533 21.5091 12.3054 18.8412 12.7904 18.8412C12.9342 18.8412 13.4064 19.4432 13.8395 20.1788Z" fill="white"/>
</svg>
