<svg width="32" height="32" viewBox="0 0 32 32" fill="none" xmlns="http://www.w3.org/2000/svg">
<g clip-path="url(#clip0)">
<path d="M30.999 15.7867C29.9291 14.9049 28.2379 14.8293 27.128 16.0205L24.3726 18.9784C24.0163 17.8335 22.947 16.9998 21.6865 16.9998H16.7693C16.3962 16.9998 16.2712 16.8573 15.6231 16.358C13.152 14.2037 9.44038 14.2106 6.97675 16.3786L5.16938 17.9697C4.35694 17.5397 3.40825 17.5291 2.59138 17.9372L0.518375 18.9734C0.0552505 19.2053 -0.132187 19.7684 0.0990005 20.2315L5.72369 31.4808C5.95556 31.9439 6.51863 32.1314 6.98175 31.9002L9.05475 30.8634C10.0766 30.3528 10.6452 29.3103 10.6084 28.2492H21.6864C23.7407 28.2492 25.7037 27.268 26.9361 25.6244L31.4365 19.6235C32.3096 18.4604 32.1714 16.7548 30.999 15.7867ZM8.216 29.1866L6.98169 29.804L2.19513 20.2315L3.43006 19.6141C3.89319 19.3828 4.45563 19.5697 4.6875 20.0334L8.63538 27.9292C8.86662 28.3922 8.67912 28.9547 8.216 29.1866ZM29.9366 18.4985L25.4363 24.4994C24.5557 25.6737 23.1539 26.3742 21.6865 26.3742H9.95406L6.44113 19.3478L8.21537 17.786C9.98088 16.233 12.6432 16.233 14.4087 17.786C15.4487 18.7016 16.0955 18.8747 16.7693 18.8747H21.6864C22.2033 18.8747 22.6239 19.2954 22.6239 19.8122C22.6239 20.329 22.2033 20.7496 21.6864 20.7496H16.8986C16.3811 20.7496 15.9612 21.1696 15.9612 21.6871C15.9612 22.2045 16.3812 22.6245 16.8986 22.6245H22.3146C23.0926 22.6245 23.8426 22.2982 24.3726 21.7289L28.4998 17.2985C28.8773 16.8935 29.456 16.9273 29.811 17.2379C30.1822 17.5629 30.2222 18.1185 29.9366 18.4985Z" fill="white"/>
<path d="M19.7117 6.39798C20.3535 5.72492 20.7491 4.81498 20.7491 3.8131C20.7491 1.74948 19.0817 0.000854492 16.9994 0.000854492C14.9326 0.000854492 13.1871 1.74635 13.1871 3.8131C13.1871 4.78429 13.5678 5.7011 14.2589 6.40548C12.5447 7.36667 11.3123 9.21154 11.3123 11.3752V12.3126C11.3123 12.83 11.7323 13.25 12.2497 13.25H21.6866C22.2041 13.25 22.6241 12.83 22.6241 12.3126V11.3752C22.624 9.25404 21.4573 7.38042 19.7117 6.39798ZM16.9994 1.87579C18.0156 1.87579 18.8742 2.76323 18.8742 3.81317C18.8742 4.84685 18.0331 5.68804 16.9994 5.68804C15.9494 5.68804 15.062 4.82935 15.062 3.81317C15.062 2.78135 15.9676 1.87579 16.9994 1.87579ZM13.1871 11.3752C13.1871 9.30842 14.9326 7.56292 16.9994 7.56292C19.0667 7.56292 20.7491 9.27279 20.7491 11.3752H13.1871Z" fill="white"/>
</g>
<defs>
<clipPath id="clip0">
<rect width="32" height="32" fill="white"/>
</clipPath>
</defs>
</svg>
