<svg width="31" height="30" viewBox="0 0 31 30" fill="none" xmlns="http://www.w3.org/2000/svg">
<g clip-path="url(#clip0)">
<path d="M18.3105 30C16.2012 30 14.5557 29.9805 13.374 29.9414C12.1924 29.9023 11.2842 29.8193 10.6494 29.6924C10.0146 29.5654 9.61426 29.458 9.44824 29.3701C9.28223 29.2822 9.01367 29.1113 8.64258 28.8574C8.34961 28.623 7.81738 28.4326 7.0459 28.2861C6.27441 28.1396 4.99023 28.0078 3.19336 27.8906C2.88086 27.8711 2.63672 27.7539 2.46094 27.5391C2.42188 27.4805 2.34375 27.3535 2.22656 27.1582C2.10938 26.9629 1.94336 26.6357 1.72852 26.1768C1.51367 25.7178 1.31348 25.2148 1.12793 24.668C0.942383 24.1211 0.78125 23.4375 0.644531 22.6172C0.507813 21.7969 0.439453 20.9668 0.439453 20.127C0.439453 17.2754 0.917969 15.0879 1.875 13.5645C2.07031 13.2715 2.34375 13.125 2.69531 13.125C4.33594 13.125 6.1377 12.1289 8.10059 10.1367C10.0635 8.14453 11.7578 5.43945 13.1836 2.02148C13.2227 1.96289 13.2861 1.82617 13.374 1.61133C13.4619 1.39648 13.5156 1.25977 13.5352 1.20117C13.5547 1.14258 13.6084 1.03027 13.6963 0.864258C13.7842 0.698242 13.8623 0.59082 13.9307 0.541992C13.999 0.493164 14.0918 0.419922 14.209 0.322266C14.3262 0.224609 14.4482 0.161133 14.5752 0.131836C14.7021 0.102539 14.8584 0.0732422 15.0439 0.0439453C15.2295 0.0146484 15.4395 0 15.6738 0C16.0254 0 16.3867 0.078125 16.7578 0.234375C17.1289 0.390625 17.4707 0.600586 17.7832 0.864258C18.0957 1.12793 18.3496 1.42578 18.5449 1.75781C18.916 2.36328 19.1309 3.23242 19.1895 4.36523C19.248 5.49805 19.2139 6.55273 19.0869 7.5293C18.96 8.50586 18.7891 9.44336 18.5742 10.3418C22.0508 10.3223 24.4141 10.3125 25.6641 10.3125C26.8164 10.3125 27.749 10.625 28.4619 11.25C29.1748 11.875 29.541 12.6953 29.5605 13.7109C29.5801 14.5703 29.4922 15.2246 29.2969 15.6738C29.6289 16.0059 29.9072 16.3525 30.1318 16.7139C30.3564 17.0752 30.4785 17.4805 30.498 17.9297C30.5176 18.8477 30.0684 19.7852 29.1504 20.7422C29.1699 20.7812 29.209 20.874 29.2676 21.0205C29.3262 21.167 29.3701 21.2891 29.3994 21.3867C29.4287 21.4844 29.4531 21.6064 29.4727 21.7529C29.4922 21.8994 29.502 22.041 29.502 22.1777C29.4629 23.252 28.8379 24.209 27.627 25.0488C27.7246 25.6934 27.7148 26.2695 27.5977 26.7773C27.1289 28.9258 24.0332 30 18.3105 30ZM3.69141 25.9863C6.89453 26.2402 8.92578 26.6895 9.78516 27.334C10.0977 27.5684 10.3711 27.7246 10.6055 27.8027C10.8398 27.8809 11.543 27.9541 12.7148 28.0225C13.8867 28.0908 15.752 28.125 18.3105 28.125C19.1113 28.125 19.8389 28.1055 20.4932 28.0664C21.1475 28.0273 21.9043 27.959 22.7637 27.8613C23.623 27.7637 24.3164 27.5879 24.8438 27.334C25.3711 27.0801 25.6836 26.7578 25.7812 26.3672C25.8594 25.957 25.6738 25.5176 25.2246 25.0488C25.127 24.8145 25.127 24.5752 25.2246 24.3311C25.3223 24.0869 25.4785 23.916 25.6934 23.8184H25.7227C25.8203 23.7793 25.9375 23.7305 26.0742 23.6719C26.2109 23.6133 26.4111 23.5059 26.6748 23.3496C26.9385 23.1934 27.1582 23.0029 27.334 22.7783C27.5098 22.5537 27.6074 22.334 27.627 22.1191C27.627 22.041 27.6221 21.9678 27.6123 21.8994C27.6025 21.8311 27.5928 21.7676 27.583 21.709C27.5732 21.6504 27.5537 21.5918 27.5244 21.5332L27.4512 21.3867L27.3779 21.2695L27.3047 21.167L27.2461 21.0938L27.2021 21.0352L27.1875 21.0059C27.1094 20.9082 27.0605 20.8008 27.041 20.6836C27.0215 20.5664 27.0215 20.4492 27.041 20.332C27.0605 20.2148 27.1045 20.1025 27.1729 19.9951C27.2412 19.8877 27.3242 19.7949 27.4219 19.7168C27.5391 19.6582 27.666 19.5752 27.8027 19.4678C27.9395 19.3604 28.1104 19.1602 28.3154 18.8672C28.5205 18.5742 28.623 18.2812 28.623 17.9883C28.6035 17.5 28.2324 17.041 27.5098 16.6113C27.3926 16.5332 27.2949 16.4404 27.2168 16.333C27.1387 16.2256 27.0801 16.1035 27.041 15.9668C27.0215 15.8887 27.0166 15.8057 27.0264 15.7178C27.0361 15.6299 27.0557 15.542 27.085 15.4541C27.1143 15.3662 27.1582 15.2832 27.2168 15.2051C27.2363 15.1855 27.2559 15.1611 27.2754 15.1318C27.2949 15.1025 27.334 15.0293 27.3926 14.9121C27.4512 14.7949 27.5 14.6826 27.5391 14.5752C27.5781 14.4678 27.6123 14.3359 27.6416 14.1797C27.6709 14.0234 27.6855 13.877 27.6855 13.7402C27.666 13.3887 27.5732 13.0957 27.4072 12.8613C27.2412 12.627 27.0264 12.4658 26.7627 12.3779C26.499 12.29 26.2891 12.2363 26.1328 12.2168C25.9766 12.1973 25.8203 12.1875 25.6641 12.1875H18.8086L17.2266 12.2168C17.1484 12.2168 17.0703 12.207 16.9922 12.1875C16.9141 12.168 16.8408 12.1387 16.7725 12.0996C16.7041 12.0605 16.6406 12.0166 16.582 11.9678C16.5234 11.9189 16.4746 11.8555 16.4355 11.7773C16.2598 11.5234 16.2305 11.2305 16.3477 10.8984C16.6602 10 16.9092 9.01367 17.0947 7.93945C17.2803 6.86523 17.3682 5.83984 17.3584 4.86328C17.3486 3.88672 17.207 3.17383 16.9336 2.72461C16.9141 2.68555 16.875 2.61719 16.8164 2.51953C16.7578 2.42188 16.7188 2.35352 16.6992 2.31445C16.6797 2.27539 16.6357 2.22168 16.5674 2.15332C16.499 2.08496 16.4307 2.03613 16.3623 2.00684C16.2939 1.97754 16.2012 1.94824 16.084 1.91895C15.9668 1.88965 15.8301 1.875 15.6738 1.875C15.6152 1.875 15.5566 1.89453 15.498 1.93359C15.4395 1.97266 15.3516 2.06055 15.2344 2.19727C15.1172 2.33398 15.0098 2.51953 14.9121 2.75391C13.4082 6.38672 11.5918 9.28223 9.46289 11.4404C7.33398 13.5986 5.27344 14.7754 3.28125 14.9707C3.125 15.3223 2.98828 15.6738 2.87109 16.0254C2.75391 16.377 2.63184 16.9336 2.50488 17.6953C2.37793 18.457 2.31445 19.2676 2.31445 20.127C2.31445 21.0059 2.40234 21.8799 2.57812 22.749C2.75391 23.6182 2.93457 24.3018 3.12012 24.7998C3.30566 25.2979 3.49609 25.6934 3.69141 25.9863Z" fill="white"/>
</g>
<defs>
<clipPath id="clip0">
<rect width="30.9375" height="30" fill="white"/>
</clipPath>
</defs>
</svg>
