<svg width="27" height="32" viewBox="0 0 27 32" fill="none" xmlns="http://www.w3.org/2000/svg">
<path fill-rule="evenodd" clip-rule="evenodd" d="M2.9709 0.541658C0.248024 1.75372 0.173898 2.12111 0.0347067 15.1126C-0.102425 27.9167 0.0861828 29.3547 2.09951 30.8423C3.60632 31.9555 7.39125 32.2856 8.15433 31.37C9.04465 30.3014 8.01513 29.4826 5.77243 29.4752C2.06451 29.4629 2.01344 29.2833 2.01344 16.209C2.01344 5.60967 2.23047 3.46765 3.37776 2.74148C3.64668 2.57091 7.59056 2.42904 12.1419 2.42535C19.5762 2.42002 20.4851 2.49383 21.0843 3.15316C21.6007 3.72146 21.7782 4.94992 21.8688 8.58609C21.9783 12.9726 22.0409 13.2851 22.8098 13.2851C23.5778 13.2851 23.6412 12.973 23.7499 8.66031C23.8767 3.63454 23.4287 1.93044 21.6773 0.775377C20.3352 -0.109884 4.86892 -0.30301 2.9709 0.541658ZM5.05259 8.34499C4.55801 9.6284 5.35691 9.79979 11.8388 9.79979C18.3503 9.79979 19.5075 9.56074 19.0273 8.31465C18.6978 7.46014 5.38245 7.48926 5.05259 8.34499ZM5.03982 13.2986C4.57983 14.4918 5.52287 14.7522 9.87363 14.6328C13.848 14.5238 14.1618 14.4553 14.1618 13.6951C14.1618 12.9329 13.8484 12.8668 9.72743 12.7586C5.9701 12.6598 5.25396 12.7426 5.03982 13.2986ZM16.9707 15.3816C15.6599 16.0253 14.3656 18.0738 14.3702 19.4975C14.3718 19.9145 14.6522 20.7891 14.9936 21.4414C15.6052 22.6084 15.5883 22.6498 13.9081 24.0816C11.1095 26.4672 10.1623 30.0296 11.9887 31.3031C13.3205 32.2323 24.4747 32.2323 25.8065 31.3031C27.7243 29.966 26.67 26.2733 23.696 23.9107C22.309 22.8089 22.2756 22.7195 22.8398 21.6325C23.5811 20.2056 23.5815 19.1613 22.8423 17.3993C22.2542 15.9987 20.4126 14.712 19.0211 14.7296C18.6134 14.7345 17.6906 15.0281 16.9707 15.3816ZM20.6152 17.859C21.6036 18.7496 21.5727 20.2573 20.5448 21.2807C19.4527 22.3681 18.6633 22.3148 17.4118 21.0687C16.3662 20.0277 16.3468 18.9431 17.3512 17.6929C17.9348 16.9668 19.7261 17.0578 20.6152 17.859ZM5.04106 18.2157C4.60331 19.3519 5.49199 19.6832 8.64232 19.5573C11.3755 19.4483 11.6909 19.3507 11.6909 18.6155C11.6909 17.8762 11.3763 17.7835 8.49324 17.6757C5.86056 17.5769 5.25067 17.6724 5.04106 18.2157ZM20.5683 24.5606C22.2192 25.0173 23.9879 26.6702 24.6266 28.3538L25.0541 29.4814H19.0932C15.2057 29.4814 13.1323 29.3317 13.1323 29.0508C13.1323 27.5058 15.559 24.9243 17.4562 24.4515C18.7699 24.1239 19.0211 24.1329 20.5683 24.5606Z" fill="#356ABC"/>
</svg>
