<svg width="40" height="40" viewBox="0 0 40 40" fill="none" xmlns="http://www.w3.org/2000/svg">
<g clip-path="url(#clip0)">
<path d="M37.7824 22.6518C37.358 22.5699 36.949 22.8475 36.8674 23.2711C35.3145 31.3305 28.2206 37.1801 20 37.1801C11.9526 37.1801 4.98508 31.5744 3.23813 23.7775L3.44204 23.9814C3.59461 24.134 3.79454 24.2103 3.99446 24.2103C4.19438 24.2103 4.3943 24.134 4.5468 23.9815C4.85196 23.6764 4.85196 23.1818 4.54688 22.8766L2.94024 21.2699C2.79375 21.1234 2.595 21.041 2.38782 21.041C2.18063 21.041 1.98188 21.1234 1.8354 21.2699L0.228833 22.8766C-0.076245 23.1817 -0.076245 23.6763 0.228911 23.9815C0.533911 24.2866 1.02868 24.2866 1.33375 23.9814L1.62297 23.6922C3.36649 32.4208 11.0745 38.7426 20 38.7426C28.9682 38.7426 36.7073 32.3602 38.4017 23.5668C38.4834 23.1431 38.2061 22.7334 37.7824 22.6518Z" fill="white"/>
<path d="M39.7711 16.0184C39.4661 15.7133 38.9713 15.7133 38.6663 16.0185L38.377 16.3077C36.6335 7.57912 28.9256 1.25732 20 1.25732C11.0318 1.25732 3.29275 7.63967 1.5983 16.4331C1.51665 16.8569 1.79392 17.2665 2.21759 17.3481C2.64181 17.4296 3.05095 17.1523 3.13259 16.7288C4.68564 8.66935 11.7795 2.81982 20 2.81982C28.0474 2.81982 35.0149 8.42553 36.7619 16.2224L36.558 16.0185C36.253 15.7134 35.7584 15.7133 35.4531 16.0184C35.148 16.3235 35.148 16.8181 35.4531 17.1233L37.0596 18.73C37.2061 18.8765 37.4049 18.9589 37.612 18.9589C37.8192 18.9589 38.018 18.8765 38.1645 18.73L39.771 17.1233C40.0763 16.8182 40.0763 16.3235 39.7711 16.0184Z" fill="white"/>
<path d="M20 33.206C27.2819 33.206 33.2062 27.2817 33.2062 19.9999C33.2062 12.718 27.2819 6.7937 20 6.7937C12.7181 6.7937 6.79383 12.718 6.79383 19.9999C6.79383 27.2817 12.7181 33.206 20 33.206ZM20 8.3562C26.4204 8.3562 31.6437 13.5795 31.6437 19.9999C31.6437 26.4203 26.4204 31.6435 20 31.6435C13.5796 31.6435 8.35633 26.4203 8.35633 19.9999C8.35633 13.5795 13.5796 8.3562 20 8.3562Z" fill="white"/>
<path d="M20.8244 23.4438C20.9191 23.4815 21.0167 23.4993 21.1128 23.4993C21.4234 23.4993 21.7172 23.3128 21.839 23.0065L24.0011 17.5707C24.1605 17.1697 23.9648 16.7154 23.5639 16.556C23.1631 16.3966 22.7087 16.5922 22.5492 16.9932L20.3871 22.4291C20.2277 22.83 20.4234 23.2843 20.8244 23.4438Z" fill="white"/>
<path d="M25.2393 18.0633H27.0331L25.125 22.4036C24.9514 22.7986 25.1308 23.2596 25.5258 23.4332C25.6282 23.4782 25.7348 23.4996 25.8399 23.4996C26.1403 23.4995 26.4268 23.3252 26.5554 23.0325L28.9451 17.5966C29.0513 17.355 29.0284 17.0761 28.8842 16.8552C28.7399 16.6342 28.4939 16.501 28.23 16.501H25.2394C24.808 16.501 24.4582 16.8508 24.4582 17.2822C24.4581 17.7135 24.8078 18.0633 25.2393 18.0633Z" fill="white"/>
<path d="M15.2389 21.5107C15.3794 21.7487 15.6352 21.8948 15.9116 21.8948H17.8435C17.8413 22.1827 17.8391 22.4586 17.8369 22.7112C17.8332 23.1426 18.18 23.4954 18.6114 23.4991H18.6183C19.0466 23.4991 19.3956 23.1537 19.3994 22.7246C19.4012 22.5201 19.4035 22.23 19.4062 21.8906C19.7996 21.8501 20.1066 21.5176 20.1066 21.1135C20.1066 20.7129 19.8051 20.3827 19.4166 20.3375C19.4236 19.0658 19.4262 17.7856 19.4103 17.5939C19.3685 17.0915 19.0616 16.6803 18.6285 16.5461C18.196 16.4123 17.7412 16.5737 17.4118 16.978C17.1024 17.3574 15.7813 19.7326 15.2276 20.7361C15.0941 20.9782 15.0983 21.2726 15.2389 21.5107ZM17.8587 19.2413C17.8575 19.5787 17.8558 19.9501 17.8537 20.3323H17.2405C17.4576 19.9455 17.6686 19.5727 17.8587 19.2413Z" fill="white"/>
<path d="M14.7663 23.5398C15.1977 23.5344 15.5431 23.1802 15.5377 22.7488C15.5324 22.3207 15.1836 21.9774 14.7567 21.9774C14.7534 21.9774 14.75 21.9774 14.7467 21.9774C14.3189 21.9827 13.8695 21.9867 13.4635 21.9887C13.7446 21.6081 14.1055 21.1095 14.5613 20.4581C14.921 19.9444 15.156 19.4559 15.2602 19.0065C15.2859 18.9068 15.3071 18.7658 15.3074 18.6198C15.3091 17.422 14.3329 16.4475 13.1351 16.4475C12.0995 16.4475 11.2031 17.1844 11.0036 18.1995C10.9205 18.6229 11.1962 19.0335 11.6196 19.1167C12.0433 19.2001 12.4537 18.9241 12.5368 18.5007C12.5927 18.2163 12.8443 18.01 13.1351 18.01C13.458 18.01 13.723 18.2624 13.7435 18.5801L13.7299 18.687C13.6832 18.8652 13.5669 19.154 13.2813 19.5621C12.4221 20.7896 11.9096 21.4606 11.6343 21.8211C11.2813 22.2834 11.0868 22.538 11.2167 22.9608C11.2932 23.2093 11.4884 23.4076 11.7394 23.4913C11.8437 23.5261 11.9272 23.5539 12.9942 23.5539C13.4131 23.5538 13.9835 23.5496 14.7663 23.5398Z" fill="white"/>
</g>
<defs>
<clipPath id="clip0">
<rect width="40" height="40" fill="white"/>
</clipPath>
</defs>
</svg>
