<svg width="32" height="32" viewBox="0 0 32 32" fill="none" xmlns="http://www.w3.org/2000/svg">
<g clip-path="url(#clip0)">
<path d="M23.652 9.39133H8.34766V10.7826H23.652V9.39133Z" fill="#356ABC"/>
<path d="M23.6521 11.4782H22.2607V12.8696H23.6521V11.4782Z" fill="#356ABC"/>
<path d="M9.73897 11.4782H8.34766V12.8696H9.73897V11.4782Z" fill="#356ABC"/>
<path d="M16.6956 4.86957H15.3043V6.26088H16.6956V4.86957Z" fill="#356ABC"/>
<path d="M18.7827 4.86957H17.3914V6.26088H18.7827V4.86957Z" fill="#356ABC"/>
<path d="M14.6086 4.86957H13.2173V6.26088H14.6086V4.86957Z" fill="#356ABC"/>
<path d="M12.5217 4.86957H11.1304V6.26088H12.5217V4.86957Z" fill="#356ABC"/>
<path d="M20.8695 4.86957H19.4781V6.26088H20.8695V4.86957Z" fill="#356ABC"/>
<path d="M28.7161 29.9949C28.1057 30.3204 27.5765 30.6016 26.4728 30.6081L30.573 18.3069C30.6858 17.9683 30.524 17.5991 30.1985 17.4526L26.4348 15.759V9.0435C26.4348 7.89275 25.4986 6.95656 24.3478 6.95656H23.3043V3.47825C23.3043 3.09406 22.9929 2.78262 22.6087 2.78262H16.6956V0H15.3043V2.78262H9.39128C9.00709 2.78262 8.69565 3.09406 8.69565 3.47825V6.9565H7.65215C6.5014 6.9565 5.56521 7.89269 5.56521 9.04344V15.7585L1.8014 17.4526C1.47584 17.5991 1.31409 17.9683 1.42703 18.3069L5.52721 30.608C4.42346 30.6015 3.89434 30.3204 3.28396 29.9948C2.60065 29.6304 1.82615 29.2174 0.3479 29.2174V30.6087C1.47834 30.6087 2.01171 30.8931 2.62921 31.2225C3.31246 31.5869 4.0869 32 5.56521 32C5.95653 32 6.29034 31.9741 6.58534 31.9211C7.43896 31.7868 8.00315 31.4862 8.50103 31.2209C9.11753 30.8924 9.6499 30.6087 10.7759 30.6087C11.9063 30.6087 12.4397 30.8931 13.0572 31.2225C13.7405 31.5869 14.515 32 15.9932 32C17.4715 32 18.246 31.5869 18.9293 31.2226C19.5468 30.8932 20.0802 30.6087 21.2106 30.6087C22.3405 30.6087 22.8746 30.8924 23.493 31.221C23.9924 31.4862 24.5582 31.7868 25.4148 31.9211C25.7097 31.9743 26.0434 32.0001 26.4347 32.0001C27.913 32.0001 28.6875 31.587 29.3708 31.2226C29.9883 30.8933 30.5217 30.6088 31.6521 30.6088V29.2175C30.1739 29.2174 29.3994 29.6304 28.7161 29.9949ZM29.0543 18.4633L28.5555 19.9597L16.6956 14.5106V12.9019L29.0543 18.4633ZM10.0869 4.17394H21.913V6.95656H10.0869V4.17394ZM6.95646 9.0435C6.95646 8.65994 7.26853 8.34787 7.65209 8.34787H9.39121H22.6086H24.3477C24.7313 8.34787 25.0433 8.65994 25.0433 9.0435V15.1328L16.2853 11.1917C16.1037 11.11 15.8958 11.1099 15.7143 11.1917L6.95634 15.1325V9.0435H6.95646ZM2.94571 18.4633L15.3043 12.902V14.5106L3.44446 19.9597L2.94571 18.4633ZM25.071 30.4139C24.733 30.3039 24.4531 30.1556 24.1456 29.9923C23.462 29.6291 22.687 29.2174 21.2105 29.2174C19.7323 29.2174 18.9578 29.6305 18.2745 29.9949C17.6568 30.3242 17.1236 30.6087 15.9932 30.6087C14.8627 30.6087 14.3293 30.3243 13.7118 29.9949C13.0286 29.6305 12.254 29.2174 10.7758 29.2174C9.30227 29.2174 8.52896 29.6295 7.84671 29.993C7.54146 30.1556 7.26346 30.3033 6.92865 30.4129L3.88696 21.2875L15.3043 16.0417V24.3478H16.6956V16.0417L28.1129 21.2876L25.071 30.4139Z" fill="#356ABC"/>
</g>
<defs>
<clipPath id="clip0">
<rect width="32" height="32" fill="white"/>
</clipPath>
</defs>
</svg>
